<?xml version="1.0" encoding="utf-8"?>
<!-- Generator: Adobe Illustrator 21.0.2, SVG Export Plug-In . SVG Version: 6.00 Build 0)  -->
<svg version="1.1" id="Layer_1" xmlns="http://www.w3.org/2000/svg" xmlns:xlink="http://www.w3.org/1999/xlink" x="0px" y="0px"
	 viewBox="0 0 128 128" style="enable-background:new 0 0 128 128;" xml:space="preserve">
<style type="text/css">
	.st0{fill:url(#SVGID_1_);}
	.st1{fill:#FFFFFF;}
</style>
<linearGradient id="SVGID_1_" gradientUnits="userSpaceOnUse" x1="20.2872" y1="-11.7128" x2="107.7128" y2="139.7128">
	<stop  offset="0" style="stop-color:#F7941D"/>
	<stop  offset="1" style="stop-color:#EE2A7B"/>
</linearGradient>
<rect class="st0" width="128" height="128"/>
<g>
	<path class="st1" d="M102,41.8C87.7,45,73.1,45.3,58.9,43c-0.8-0.1-1.5,0.2-1.6,0.9c-0.1,0.6,0.5,1.2,1.3,1.4
		c13.6,2.3,27.6,2.1,41.3-0.7c-1.1,2.8-2.2,5.7-3.2,8.5c-7.5,1.4-15,1.9-22.6,1.8c-0.7,0-1.4,0.3-1.6,0.9c-0.7,1.8-1.4,3.6-2.1,5.4
		c-0.1,0.3-0.1,0.7,0.2,0.9c0.2,0.3,0.6,0.4,1.1,0.5c5.5,0.2,11.1,0,16.6-0.6c-1.1,2.9-2.2,5.9-3.3,8.8c-5.6,0.5-11.3,0.5-16.9,0.2
		c-0.7,0-1.4,0.3-1.5,0.8c-1.8,4.7-3.6,9.4-5.4,14c-5.8-0.7-11.5-1.8-17.1-3.4c-0.8-0.2-1.4,0.1-1.5,0.7c-0.1,0.6,0.5,1.3,1.3,1.5
		c6,1.7,12.1,2.9,18.3,3.6c0.7,0.1,1.3-0.3,1.5-0.8c1.8-4.7,3.6-9.4,5.4-14.1c5.6,0.3,11.2,0.2,16.8-0.3c0.7-0.1,1.4-0.5,1.6-1.1
		c1.4-3.7,2.8-7.4,4.2-11.2c0.1-0.3,0.1-0.7-0.2-0.9c-0.2-0.2-0.6-0.3-1.1-0.3c-5.5,0.7-11.1,1-16.6,0.9c0.4-1.1,0.8-2.2,1.3-3.2
		c7.5,0.1,15.1-0.6,22.5-2c0.7-0.1,1.4-0.7,1.6-1.2c1.4-3.6,2.7-7.3,4.1-11c0.1-0.3,0.1-0.7-0.2-0.8C102.8,41.8,102.4,41.7,102,41.8
		z"/>
	<path class="st1" d="M44.5,56.7c-0.1,0.6,0.5,1.2,1.2,1.4c5.5,1.5,11,2.7,16.7,3.4c0.8,0.1,1.4-0.3,1.5-0.9
		c0.1-0.6-0.5-1.1-1.3-1.2C57.1,58.7,51.5,57.6,46,56C45.3,55.8,44.6,56.1,44.5,56.7z"/>
	<path class="st1" d="M51.5,63.8c-0.1,0.6,0.5,1.2,1.2,1.4c8.9,1.9,17.9,2.6,27,2.3c0.8,0,1.5-0.5,1.5-1.1c0.1-0.6-0.5-1-1.2-1
		C71,65.7,61.9,64.9,53,63.1C52.2,62.9,51.6,63.2,51.5,63.8z"/>
	<path class="st1" d="M43.1,62.7c1.1,0.4,2.3,0.7,3.5,1c0.7,0.2,1.4-0.1,1.5-0.7c0.1-0.6-0.5-1.2-1.2-1.4c-1.2-0.3-2.3-0.6-3.5-1
		c-0.7-0.2-1.4,0.1-1.4,0.6C41.8,61.8,42.4,62.5,43.1,62.7z"/>
	<path class="st1" d="M56.3,81.3c0.1-0.6-0.5-1.2-1.2-1.3c-7.1-1.3-14-3.2-20.7-5.9c-0.7-0.3-1.3,0-1.4,0.5
		c-0.1,0.6,0.5,1.3,1.2,1.6c6.7,2.6,13.6,4.6,20.7,5.9C55.6,82.3,56.2,81.9,56.3,81.3z"/>
	<path class="st1" d="M53.3,49.3C65.7,52,78.4,52.5,91,50.9c0.8-0.1,1.5-0.7,1.6-1.3c0.1-0.6-0.5-1-1.2-0.9
		c-12.6,1.6-25.4,1.1-37.8-1.6c-0.8-0.2-1.4,0.2-1.5,0.8C52,48.6,52.5,49.2,53.3,49.3z"/>
	<path class="st1" d="M37.3,44.6c3.1,1.2,6.3,2.2,9.4,3.1c0.8,0.2,1.4-0.1,1.5-0.7c0.1-0.6-0.5-1.2-1.2-1.4
		c-3.2-0.9-6.3-1.9-9.5-3.1c-0.7-0.3-1.4,0-1.4,0.5C36,43.7,36.6,44.4,37.3,44.6z"/>
	<path class="st1" d="M42.6,72.3c0.1-0.6-0.5-1.2-1.2-1.5c-4.9-1.6-9.8-3.5-14.5-5.8c-0.7-0.3-1.3-0.1-1.4,0.4
		c-0.1,0.6,0.5,1.3,1.2,1.7c4.7,2.3,9.5,4.2,14.4,5.8C41.9,73.2,42.5,72.9,42.6,72.3z"/>
	<path class="st1" d="M57.2,74.7c-3.2-0.5-6.3-1.2-9.5-2c-0.7-0.2-1.4,0.1-1.5,0.7c-0.1,0.6,0.5,1.2,1.2,1.4c3.1,0.8,6.3,1.5,9.5,2
		c0.8,0.1,1.4-0.3,1.5-0.8C58.5,75.4,57.9,74.8,57.2,74.7z"/>
	<path class="st1" d="M66.5,55.6c0.1-0.6-0.5-1.1-1.3-1.2c-9.2-0.9-18.3-3-27-6.2c-0.7-0.3-1.4,0-1.4,0.6c-0.1,0.6,0.5,1.3,1.2,1.5
		c8.7,3.2,17.8,5.3,27,6.2C65.8,56.6,66.5,56.1,66.5,55.6z"/>
	<path class="st1" d="M31.2,63.7c2.2,0.9,4.3,1.8,6.6,2.6c0.7,0.3,1.4,0,1.4-0.6c0.1-0.6-0.5-1.3-1.2-1.5c-2.2-0.8-4.4-1.7-6.6-2.6
		c-0.7-0.3-1.3-0.1-1.4,0.5C30,62.6,30.5,63.4,31.2,63.7z"/>
	<path class="st1" d="M59.3,69.5c-5.3-0.8-10.5-1.9-15.6-3.5c-0.7-0.2-1.4,0.1-1.4,0.6c-0.1,0.6,0.5,1.2,1.2,1.5
		c5.1,1.5,10.3,2.7,15.6,3.5c0.8,0.1,1.4-0.3,1.5-0.9C60.6,70.2,60.1,69.6,59.3,69.5z"/>
	<path class="st1" d="M27.3,60.8c-0.1,0.6-0.7,0.8-1.4,0.4c-0.7-0.3-1.2-1.1-1.2-1.7c0.1-0.6,0.7-0.8,1.4-0.4
		C26.8,59.4,27.3,60.2,27.3,60.8z"/>
	<path class="st1" d="M33,41.8c-0.1,0.6-0.7,0.8-1.4,0.5c-0.7-0.3-1.3-1.1-1.2-1.6c0.1-0.6,0.7-0.8,1.4-0.5
		C32.5,40.5,33,41.2,33,41.8z"/>
	<path class="st1" d="M39,60.2c-0.1,0.6-0.7,0.8-1.4,0.6c-0.7-0.3-1.3-1-1.2-1.5c0.1-0.6,0.7-0.8,1.4-0.6C38.5,59,39,59.7,39,60.2z"
		/>
	<path class="st1" d="M54.4,43.2c-0.1,0.6-0.7,0.9-1.5,0.8c-0.8-0.2-1.3-0.8-1.3-1.4c0.1-0.6,0.7-0.9,1.5-0.7
		C53.9,42,54.4,42.6,54.4,43.2z"/>
	<path class="st1" d="M39.3,81.9c-0.1,0.6-0.7,0.9-1.4,0.6c-0.7-0.3-1.2-0.9-1.2-1.5c0.1-0.6,0.7-0.8,1.4-0.6
		C38.8,80.6,39.3,81.3,39.3,81.9z"/>
	<path class="st1" d="M30.2,73.5c-0.1,0.6-0.7,0.8-1.4,0.5c-0.7-0.3-1.2-1.1-1.2-1.6c0.1-0.6,0.7-0.8,1.4-0.5
		C29.8,72.2,30.3,72.9,30.2,73.5z"/>
</g>
</svg>
